<svg width="80" height="80" viewBox="0 0 80 80" fill="none" xmlns="http://www.w3.org/2000/svg">
<path d="M0 0H59C70.598 0 80 9.40202 80 21V80L0 0Z" fill="#E5E7EB"/>
<mask id="mask0_1345_7450" style="mask-type:alpha" maskUnits="userSpaceOnUse" x="0" y="0" width="80" height="80">
<path d="M0 0H63.75C72.7246 0 80 7.27537 80 16.25V80L0 0Z" fill="#007AFF"/>
</mask>
<g mask="url(#mask0_1345_7450)">
<path d="M26 26.1136L28.9316 30.6972V17.8088C28.9316 17.2679 29.3715 16.8301 29.9125 16.8327L62.0285 16.9876C62.5658 16.9902 63 17.4265 63 17.9638V42.0238C63 42.5629 62.5629 43 62.0238 43H41.0732L51.4542 52.5647V46H62C64.2091 46 66 44.2091 66 42V18.0001C66 15.7909 64.2091 14.0001 62 14.0001L30 14C27.7909 14 26 15.7909 26 18V26.1136Z" fill="#212835"/>
<path d="M34 23V34.1032L38.7273 39H56C57.1046 39 58 38.1046 58 37V23C58 21.8954 57.1046 21 56 21H36C34.8954 21 34 21.8954 34 23Z" fill="#212835"/>
<path d="M51.5566 52.6704H58.6031C59.2464 52.6704 59.7678 53.1919 59.7678 53.8352C59.7678 54.4785 59.2464 55 58.6031 55H53.8862L51.5566 52.6704Z" fill="#212835"/>
</g>
</svg>

